<?xml version="1.0" encoding="utf-8"?>
<!-- Generator: Adobe Illustrator 25.3.1, SVG Export Plug-In . SVG Version: 6.00 Build 0)  -->
<svg version="1.1" id="图层_1" xmlns="http://www.w3.org/2000/svg" xmlns:xlink="http://www.w3.org/1999/xlink" x="0px" y="0px"
	 viewBox="0 0 120 40" style="enable-background:new 0 0 120 40;" xml:space="preserve">
<style type="text/css">
	.st0{clip-path:url(#SVGID_2_);}
	.st1{fill:url(#SVGID_3_);}
	.st2{clip-path:url(#SVGID_5_);}
	.st3{fill:url(#SVGID_6_);}
	.st4{clip-path:url(#SVGID_8_);}
	.st5{fill:url(#SVGID_9_);}
	.st6{clip-path:url(#SVGID_11_);}
	.st7{fill:url(#SVGID_12_);}
	.st8{clip-path:url(#SVGID_14_);}
	.st9{fill:url(#SVGID_15_);}
	.st10{clip-path:url(#SVGID_17_);}
	.st11{clip-path:url(#SVGID_19_);}
	.st12{clip-path:url(#SVGID_21_);}
	.st13{fill:url(#SVGID_22_);}
	.st14{clip-path:url(#SVGID_24_);}
	.st15{fill:url(#SVGID_25_);}
	.st16{clip-path:url(#SVGID_27_);}
	.st17{fill:#66FFFB;}
	.st18{clip-path:url(#SVGID_29_);}
	.st19{clip-path:url(#SVGID_31_);}
	.st20{fill:url(#SVGID_32_);}
	.st21{opacity:0.5;}
	.st22{clip-path:url(#SVGID_34_);}
	.st23{clip-path:url(#SVGID_36_);}
	.st24{clip-path:url(#SVGID_38_);}
	.st25{clip-path:url(#SVGID_40_);}
	.st26{fill:url(#SVGID_41_);}
	.st27{clip-path:url(#SVGID_43_);}
	.st28{fill:url(#SVGID_44_);}
	.st29{clip-path:url(#SVGID_46_);}
	.st30{fill:url(#SVGID_47_);}
	.st31{clip-path:url(#SVGID_49_);}
	.st32{fill:url(#SVGID_50_);}
	.st33{clip-path:url(#SVGID_52_);}
	.st34{fill:url(#SVGID_53_);}
	.st35{clip-path:url(#SVGID_55_);}
	.st36{clip-path:url(#SVGID_57_);}
	.st37{clip-path:url(#SVGID_59_);}
	.st38{fill:url(#SVGID_60_);}
	.st39{clip-path:url(#SVGID_62_);}
	.st40{fill:url(#SVGID_63_);}
	.st41{clip-path:url(#SVGID_65_);}
	.st42{clip-path:url(#SVGID_67_);}
	.st43{clip-path:url(#SVGID_69_);}
	.st44{fill:url(#SVGID_70_);}
	.st45{clip-path:url(#SVGID_72_);}
	.st46{clip-path:url(#SVGID_74_);}
	.st47{clip-path:url(#SVGID_76_);}
</style>
<g>
	<g id="图层_1_2_">
		<polygon points="35.4,28.6 35.4,17.4 32,17.4 32,14.6 41.7,14.6 41.7,17.4 38.2,17.4 38.2,28.6 		"/>
		<path d="M53.2,26.5c-0.5,0.7-1.1,1.3-1.9,1.7c-0.8,0.4-1.6,0.6-2.5,0.6c-0.9,0-1.7-0.2-2.5-0.6c-0.8-0.4-1.4-1-1.9-1.7
			c-0.5-0.8-0.7-1.8-0.7-2.7v-9.1h2.8v9.1c0,0.6,0.2,1.2,0.7,1.6c0.9,0.8,2.3,0.8,3.2,0c0.5-0.4,0.7-1,0.7-1.6v-9.1h2.8v9.1
			C53.9,24.7,53.7,25.6,53.2,26.5"/>
		<path d="M56.7,24.8c0.6,0.4,1.2,0.7,1.9,0.9c0.6,0.2,1.2,0.2,1.8,0.2l0.4,0c0.4,0,0.7-0.2,1-0.4c0.3-0.2,0.4-0.5,0.4-0.9
			c0-0.4-0.1-0.7-0.4-1c-0.3-0.3-0.7-0.5-1.1-0.6c-1.1-0.4-2.1-0.9-3-1.7c-0.7-0.7-1.1-1.6-1.1-2.6c0-0.7,0.2-1.5,0.5-2.1
			c0.3-0.6,0.8-1.2,1.4-1.5c0.6-0.4,1.3-0.6,2.1-0.6l0.5,0c1,0,2.1,0.2,3,0.6l-0.4,2.7c-0.9-0.4-1.9-0.6-2.9-0.6
			c-0.8,0-1.4,0.6-1.4,1.3c0,0,0,0.1,0,0.1c0,0.4,0.1,0.7,0.4,1c0.3,0.3,0.7,0.5,1.2,0.6c1.1,0.4,2.1,1,3,1.7
			c0.7,0.7,1.1,1.6,1.1,2.6c0,0.8-0.2,1.5-0.6,2.2c-0.4,0.7-0.9,1.2-1.6,1.5c-0.8,0.4-1.6,0.6-2.4,0.5c-1.4,0-2.8-0.4-4-1L56.7,24.8
			z"/>
		<rect x="67.4" y="14.6" width="2.8" height="14"/>
		<polygon points="85.3,14.4 86.2,14.4 86.2,28.6 83.3,28.6 83.3,20.8 79.8,24.6 76.2,20.8 76.2,28.6 73.3,28.6 73.3,14.4 
			74.2,14.4 79.8,20.5 		"/>
		<path d="M94,14.1h0.3l5.9,14.5H97l-0.6-1.5h-4.6l-0.5,1.5h-3.2L94,14.1z M95.4,24.5l-1.3-3.6l-1.3,3.6H95.4z"/>
		<g>
			<defs>
				<path id="SVGID_39_" d="M14.5,11.7l-6.8,3.9l2.2,0.5l4.6,2.6c0.6,0.3,0.9,0.9,0.9,1.6v13l-1,1.6l7.7-4.4c0.7-0.4,1.1-1.1,1.1-2
					V16.2c0-0.7-0.4-1.3-0.9-1.6l-4.9-2.9C16.4,11.2,15.4,11.2,14.5,11.7"/>
			</defs>
			<clipPath id="SVGID_2_">
				<use xlink:href="#SVGID_39_"  style="overflow:visible;"/>
			</clipPath>
			<g class="st0">
				
					<linearGradient id="SVGID_3_" gradientUnits="userSpaceOnUse" x1="-1440.8579" y1="-5243.1255" x2="-1440.5688" y2="-5243.1255" gradientTransform="matrix(47.6538 82.4723 -82.4723 47.6538 -363740.5938 368698.75)">
					<stop  offset="0" style="stop-color:#00FFFF"/>
					<stop  offset="6.000000e-02" style="stop-color:#00FFFF"/>
					<stop  offset="9.000000e-02" style="stop-color:#0CFFFF"/>
					<stop  offset="0.14" style="stop-color:#2DFFFF"/>
					<stop  offset="0.21" style="stop-color:#62FFFF"/>
					<stop  offset="0.27" style="stop-color:#8FFFFF"/>
					<stop  offset="0.42" style="stop-color:#4EECC3"/>
					<stop  offset="0.57" style="stop-color:#16DC8F"/>
					<stop  offset="0.64" style="stop-color:#00D67B"/>
					<stop  offset="1" style="stop-color:#00D67B"/>
				</linearGradient>
				<polygon class="st1" points="-2.5,17.3 19.3,4.7 33.4,29 11.6,41.6 				"/>
			</g>
		</g>
		<g>
			<defs>
				<path id="SVGID_42_" d="M7,17.6v13c0,0.7,0.4,1.3,0.9,1.6l4.7,2.7c0.9,0.5,2,0.2,2.5-0.7c0.2-0.3,0.2-0.6,0.2-0.9v-13
					c0-0.7-0.4-1.3-0.9-1.6L9.7,16c-0.3-0.2-0.6-0.2-0.9-0.2C7.8,15.7,7,16.5,7,17.6C7,17.6,7,17.6,7,17.6"/>
			</defs>
			<clipPath id="SVGID_5_">
				<use xlink:href="#SVGID_42_"  style="overflow:visible;"/>
			</clipPath>
			<g class="st2">
				
					<linearGradient id="SVGID_6_" gradientUnits="userSpaceOnUse" x1="-1480.676" y1="-5234.585" x2="-1480.3868" y2="-5234.585" gradientTransform="matrix(-38.8501 -70.9611 70.9611 -38.8501 313944.9062 -308397.7188)">
					<stop  offset="0" style="stop-color:#01A245"/>
					<stop  offset="0.1" style="stop-color:#01A245"/>
					<stop  offset="0.14" style="stop-color:#06A850"/>
					<stop  offset="0.2" style="stop-color:#14B86C"/>
					<stop  offset="0.28" style="stop-color:#29D399"/>
					<stop  offset="0.34" style="stop-color:#3FEDC6"/>
					<stop  offset="0.42" style="stop-color:#3AE7BB"/>
					<stop  offset="0.55" style="stop-color:#2CD79F"/>
					<stop  offset="0.72" style="stop-color:#17BC72"/>
					<stop  offset="0.87" style="stop-color:#01A245"/>
					<stop  offset="0.92" style="stop-color:#049E4F"/>
					<stop  offset="0.99" style="stop-color:#0D926C"/>
					<stop  offset="1" style="stop-color:#0E916E"/>
				</linearGradient>
				<polygon class="st3" points="-1.4,20.3 13.4,12.2 23.8,31 8.9,39.1 				"/>
			</g>
		</g>
		<g>
			<defs>
				<path id="SVGID_45_" d="M12.8,33.8l-3.9-2.2C8.4,31.2,8,30.6,8,30V17.2c0-0.3,0.3-0.6,0.6-0.6c0.1,0,0.2,0,0.3,0.1l4.5,2.6
					c0.6,0.3,0.9,0.9,0.9,1.6v12.1c0,0.6-0.5,1-1,1C13.2,34,13,33.9,12.8,33.8 M7,16.9v13.7c0,0.7,0.4,1.3,0.9,1.6l4.7,2.7
					c0.9,0.5,2,0.2,2.5-0.7c0.2-0.3,0.2-0.6,0.2-0.9v-13c0-0.7-0.3-1.3-0.9-1.6l-5.3-3.1c-0.7-0.4-1.6-0.2-1.9,0.5
					C7,16.4,7,16.6,7,16.9"/>
			</defs>
			<clipPath id="SVGID_8_">
				<use xlink:href="#SVGID_45_"  style="overflow:visible;"/>
			</clipPath>
			<g class="st4">
				
					<linearGradient id="SVGID_9_" gradientUnits="userSpaceOnUse" x1="-1437.8219" y1="-5256.7827" x2="-1437.5328" y2="-5256.7827" gradientTransform="matrix(3.3782 65.3327 -65.3327 3.3782 -338571.9688 111710.8047)">
					<stop  offset="0" style="stop-color:#82FFFF"/>
					<stop  offset="0.14" style="stop-color:#82FFFF"/>
					<stop  offset="0.39" style="stop-color:#72FCE5"/>
					<stop  offset="0.81" style="stop-color:#54F7B2"/>
					<stop  offset="1" style="stop-color:#54F7B2"/>
				</linearGradient>
				<polygon class="st5" points="5.9,15.5 15.4,15 16.4,35.5 7,36 				"/>
			</g>
		</g>
		<g>
			<defs>
				<path id="SVGID_48_" d="M0,15.8V25l0,0c0,0.6,0.2,1.2,0.7,1.6C0.8,26.8,1,26.9,1.1,27l4.4,2.5l0.1,0c0.3,0.2,0.6,0.2,1,0.2V19.4
					h0L0,15.8L0,15.8z"/>
			</defs>
			<clipPath id="SVGID_11_">
				<use xlink:href="#SVGID_48_"  style="overflow:visible;"/>
			</clipPath>
			<g class="st6">
				
					<linearGradient id="SVGID_12_" gradientUnits="userSpaceOnUse" x1="-1442.781" y1="-5271.7339" x2="-1442.4918" y2="-5271.7339" gradientTransform="matrix(-17.9437 47.3864 -47.3864 -17.9437 -275691.375 -26210.4336)">
					<stop  offset="0" style="stop-color:#00FFFF"/>
					<stop  offset="0.18" style="stop-color:#00FFFF"/>
					<stop  offset="0.4" style="stop-color:#00EEC9"/>
					<stop  offset="0.66" style="stop-color:#00DD91"/>
					<stop  offset="0.78" style="stop-color:#00D67B"/>
					<stop  offset="1" style="stop-color:#00D67B"/>
				</linearGradient>
				<polygon class="st7" points="-4.6,28 0.8,13.6 11.2,17.6 5.7,32 				"/>
			</g>
		</g>
		<g>
			<defs>
				<path id="SVGID_51_" d="M6.6,19.4v10.3c0.1,0,0.3,0,0.4-0.1l0,0l0.2-0.1l0,0l0,0h0l0,0h0l0,0l0.1,0l0,0h0l0,0l0,0l7-4v-4.7
					c0-0.7-0.4-1.3-0.9-1.6l-2.6-1.5l0,0L10,17.3L6.6,19.4z M18.5,12.4l0.9,0.5l2.9,1.7c0.6,0.3,0.9,0.9,0.9,1.6v4.2l0,0
					c0.6-0.3,0.9-0.9,0.9-1.6v-0.3l0-9.4l0,0L18.5,12.4z"/>
			</defs>
			<clipPath id="SVGID_14_">
				<use xlink:href="#SVGID_51_"  style="overflow:visible;"/>
			</clipPath>
			<g class="st8">
				
					<linearGradient id="SVGID_15_" gradientUnits="userSpaceOnUse" x1="-1411.6527" y1="-5247.3003" x2="-1411.3636" y2="-5247.3003" gradientTransform="matrix(19.6914 31.5373 -31.5373 19.6914 -137675.4375 147861.9062)">
					<stop  offset="0" style="stop-color:#00FFFF"/>
					<stop  offset="0.3" style="stop-color:#00EEC9"/>
					<stop  offset="0.64" style="stop-color:#00DD91"/>
					<stop  offset="0.81" style="stop-color:#00D67B"/>
					<stop  offset="1" style="stop-color:#00D67B"/>
				</linearGradient>
				<polygon class="st9" points="-2.7,14.9 19.2,1.3 33.3,24 11.5,37.6 				"/>
			</g>
		</g>
		<g>
			<defs>
				<path id="SVGID_54_" d="M7,20L7,20z M0,15.8V25l0,0c0,0.6,0.2,1.2,0.7,1.6C0.8,26.8,1,26.9,1.1,27l4.4,2.5l0.1,0
					C6,29.8,6.5,29.8,7,29.7l0,0l0.2-0.1l0,0l0,0h0l0,0h0l0,0l0.1,0l0,0h0l0,0l0,0l7-4v-4.7c0-0.7-0.4-1.3-0.9-1.6l-2.6-1.5l0,0
					L10,17.3l-3.5,2.1L0,15.8L0,15.8z M18.5,12.4l0.9,0.5l2.9,1.7c0.6,0.3,0.9,0.9,0.9,1.6v4.2l0,0c0.6-0.3,0.9-0.9,0.9-1.6v-0.3
					l0-9.4l0,0L18.5,12.4z"/>
			</defs>
			<clipPath id="SVGID_17_">
				<use xlink:href="#SVGID_54_"  style="overflow:visible;"/>
			</clipPath>
			<g class="st10">
				<g>
					<g>
						<defs>
							<rect id="SVGID_56_" x="5.8" y="18.8" width="1.5" height="11.3"/>
						</defs>
						<clipPath id="SVGID_19_">
							<use xlink:href="#SVGID_56_"  style="overflow:visible;"/>
						</clipPath>
						<g class="st11">
							<g>
								<defs>
									<rect id="SVGID_58_" x="5.8" y="18.8" width="1.5" height="11.3"/>
								</defs>
								<clipPath id="SVGID_21_">
									<use xlink:href="#SVGID_58_"  style="overflow:visible;"/>
								</clipPath>
								<g class="st12">
									
										<linearGradient id="SVGID_22_" gradientUnits="userSpaceOnUse" x1="-1428.205" y1="-5267.8149" x2="-1427.9159" y2="-5267.8149" gradientTransform="matrix(0 43.17 -43.17 0 -227405 61674.5977)">
										<stop  offset="0" style="stop-color:#66FFFF"/>
										<stop  offset="0.18" style="stop-color:#66FFFF"/>
										<stop  offset="0.29" style="stop-color:#62F7ED"/>
										<stop  offset="0.64" style="stop-color:#57DFB5"/>
										<stop  offset="0.81" style="stop-color:#53D69F"/>
										<stop  offset="1" style="stop-color:#53D69F"/>
									</linearGradient>
									<rect x="5.8" y="18.8" class="st13" width="1.5" height="11.3"/>
								</g>
							</g>
						</g>
					</g>
				</g>
			</g>
		</g>
		<g>
			<defs>
				<path id="SVGID_61_" d="M7,20L7,20z M16.3,5.2l-1.2,0.7L0.9,14.1c-0.2,0.1-0.4,0.3-0.5,0.4l0,0l0,0l0,0l0,0
					c-0.6,0.8-0.5,2,0.3,2.6c0.1,0.1,0.2,0.1,0.3,0.2l4.6,2.5c0.6,0.3,1.2,0.3,1.8,0l3.5-2l0,0l-0.8-0.5l-0.2-0.1L8,18.3l-0.6,0.3
					c-0.1,0.1-0.3,0.1-0.4,0.2v-1.9c0-0.5,0.3-1,0.7-1.3l0,0l6.7-3.9c0.9-0.5,1.9-0.5,2.8,0l1,0.6l0.2,0.1l0.9,0.5l3.8-2.2
					c0.9-0.5,1.2-1.6,0.7-2.5c-0.2-0.3-0.4-0.5-0.7-0.7l-2.7-1.6l-1.2-0.7l-0.1,0C18.2,4.7,17.2,4.7,16.3,5.2"/>
			</defs>
			<clipPath id="SVGID_24_">
				<use xlink:href="#SVGID_61_"  style="overflow:visible;"/>
			</clipPath>
			<g class="st14">
				
					<linearGradient id="SVGID_25_" gradientUnits="userSpaceOnUse" x1="-1472.7869" y1="-5255.8623" x2="-1472.4978" y2="-5255.8623" gradientTransform="matrix(-87.04 0 0 -87.04 -128167.2344 -457457.7812)">
					<stop  offset="0" style="stop-color:#01A245"/>
					<stop  offset="4.000000e-02" style="stop-color:#06A850"/>
					<stop  offset="0.12" style="stop-color:#14B86C"/>
					<stop  offset="0.22" style="stop-color:#29D399"/>
					<stop  offset="0.31" style="stop-color:#3FEDC6"/>
					<stop  offset="0.52" style="stop-color:#26CF92"/>
					<stop  offset="0.76" style="stop-color:#0BAF5B"/>
					<stop  offset="0.87" style="stop-color:#01A245"/>
					<stop  offset="0.92" style="stop-color:#049E4F"/>
					<stop  offset="0.99" style="stop-color:#0D926C"/>
					<stop  offset="1" style="stop-color:#0E916E"/>
				</linearGradient>
				<rect x="-0.3" y="4.9" class="st15" width="24.6" height="15.3"/>
			</g>
		</g>
		<g>
			<defs>
				<path id="SVGID_64_" d="M7,20L7,20z M17,4.9c-0.2,0.1-0.5,0.2-0.7,0.3L0.9,14.1c-0.6,0.3-1,1-0.9,1.7l0,0v0L0,25
					c0,0.8,0.4,1.5,1.1,1.9l4.4,2.5c0.4,0.3,1,0.3,1.5,0.2l0,0c0.1,0,0.2-0.1,0.4-0.2L8,29.1l6.4-3.7v-4.6c0-0.7-0.4-1.3-0.9-1.6
					l-2.6-1.5l0,0l-0.8-0.5l-0.2-0.1L8,18.3l-0.6,0.3c-0.1,0.1-0.3,0.1-0.4,0.2v-1.9c0-0.5,0.3-1,0.7-1.3l0,0l6.7-3.9
					c0.9-0.5,1.9-0.5,2.8,0l1,0.6l0.2,0.1l0.9,0.5l2.9,1.7c0.6,0.3,0.9,0.9,0.9,1.6v4.2l0,0c0.6-0.3,0.9-0.9,0.9-1.6l0-9.7
					c0-0.7-0.3-1.3-0.9-1.6h0l-4-2.3C19,5.1,18.7,5,18.5,5C18,4.8,17.5,4.8,17,4.9"/>
			</defs>
			<clipPath id="SVGID_27_">
				<use xlink:href="#SVGID_64_"  style="overflow:visible;"/>
			</clipPath>
			<g class="st16">
				<path class="st17" d="M16.3,5.2L0.9,14.1c-0.9,0.5-1.2,1.6-0.7,2.5C0.4,17,0.7,17.2,1,17.4l4.6,2.4c0.6,0.3,1.2,0.3,1.8,0
					l15.7-9.1c0.9-0.5,1.2-1.6,0.7-2.5c-0.2-0.3-0.4-0.5-0.7-0.7l-4-2.3C18.3,4.7,17.2,4.7,16.3,5.2 M5.6,18.7l-3.8-2
					c-0.5-0.3-0.7-0.9-0.4-1.4c0.1-0.2,0.2-0.3,0.4-0.4l15-8.6c0.6-0.4,1.4-0.4,2.1,0l3.5,2c0.5,0.3,0.7,0.9,0.4,1.4
					c-0.1,0.2-0.2,0.3-0.4,0.4L7.4,18.6C6.8,18.9,6.2,19,5.6,18.7"/>
				<g>
					<g>
						<defs>
							<rect id="SVGID_66_" x="7" y="13.2" width="8.9" height="17.3"/>
						</defs>
						<clipPath id="SVGID_29_">
							<use xlink:href="#SVGID_66_"  style="overflow:visible;"/>
						</clipPath>
						<g class="st18">
							<g>
								<defs>
									<polygon id="SVGID_68_" points="15.9,25.7 7,30.5 7,17.9 15.9,13.2 									"/>
								</defs>
								<clipPath id="SVGID_31_">
									<use xlink:href="#SVGID_68_"  style="overflow:visible;"/>
								</clipPath>
								<g class="st19">
									<g>
										
											<linearGradient id="SVGID_32_" gradientUnits="userSpaceOnUse" x1="-1491.8193" y1="-5293.5698" x2="-1491.5303" y2="-5293.5698" gradientTransform="matrix(-28.369 4.9053 -4.9053 -28.369 -68273.1016 -142834.4531)">
											<stop  offset="0" style="stop-color:#049D52"/>
											<stop  offset="0.31" style="stop-color:#09B062"/>
											<stop  offset="0.92" style="stop-color:#16E08A"/>
											<stop  offset="1" style="stop-color:#16E08A"/>
										</linearGradient>
										<polygon class="st20" points="4.1,13.7 15.7,11.7 18.8,30 7.3,32 										"/>
									</g>
								</g>
							</g>
						</g>
					</g>
				</g>
				<g class="st21">
					<g>
						<defs>
							<rect id="SVGID_71_" x="16.2" y="8.6" width="10.4" height="19.8"/>
						</defs>
						<clipPath id="SVGID_34_">
							<use xlink:href="#SVGID_71_"  style="overflow:visible;"/>
						</clipPath>
						<g class="st22">
							<g>
								<defs>
									<polygon id="SVGID_73_" points="17.6,14.4 17.6,26.9 25,23.3 25.2,10 									"/>
								</defs>
								<clipPath id="SVGID_36_">
									<use xlink:href="#SVGID_73_"  style="overflow:visible;"/>
								</clipPath>
								<g class="st23">
									<g>
										<g>
											<g>
												<defs>
													<rect id="SVGID_75_" x="17.6" y="10" width="7.5" height="16.9"/>
												</defs>
												<clipPath id="SVGID_38_">
													<use xlink:href="#SVGID_75_"  style="overflow:visible;"/>
												</clipPath>
												<g class="st24">
													<g>
														
															<image style="overflow:visible;enable-background:new    ;" width="55" height="123" xlink:href="8B4E601F7B12A287.png"  transform="matrix(0.1388 0 0 0.1388 17.5566 9.9274)">
														</image>
													</g>
												</g>
											</g>
										</g>
									</g>
								</g>
							</g>
						</g>
					</g>
				</g>
			</g>
		</g>
	</g>
</g>
</svg>
